/* XPM */
static char *ddc7a9c5266047d7bccf1b0a2f2896d7WGYjhS269UzxNPGQ[] = {
/* columns rows colors chars-per-pixel */
"32 32 3 1 ",
"  c gray13",
". c gray62",
"X c gray96",
/* pixels */
"XXXXXXXXXXXXXXXXXXXXXXXXXXXXXXXX",
"XXXXXXXXXXXXXXXXXXXXXXXXXXXXXXXX",
"XXXXXXXXXXXXXXXXXXXXXXXXXXXXXXXX",
"XXXXX..XXXXXXXXXXXXXXXXXXXXXXXXX",
"XXXXX..XXXXXXXXXXXXXXXXXXXXXXXXX",
"XXXXX..XXXXXXXXXXXXXXXXX..XXXXXX",
"XXXXX..XXXXXXXXXXXXXXXXX..XXXXXX",
"XXXXX..XXXXXXXXX..XXXXXX..XXXXXX",
"XXXXXXXXXXXXXX     XXXXX..XXXXXX",
"XXXXXXXXXXXX  XXXXX  XXX..XXXXXX",
"XXXXXXXXXXX XXXXXXXXX XXXXXXXXXX",
"XXXXXXXXXX XXXXXXXXXXX XXXXXXXXX",
"XXXXXXXXX XXXXXXXXXXXXX XXXXXXXX",
"XXXXXXXXX XXXXXXXXXXXXX XXXXXXXX",
"XXXXXXXX XXXXXX   XXXXXX XXXXXXX",
"XXXXXXXX XXXXX XXX XXXXX XXXXXXX",
"XXXXXXXX       XXX       XXXXXXX",
"XXXXXXXX XXXXX XXX XXXXX XXXXXXX",
"XXXXXXXX XXXXXX   XXXXXX XXXXXXX",
"XXXXXXXXX XXXXXXXXXXXXX XXXXXXXX",
"XXXXXXXXX XXXXXXXXXXXXX XXXXXXXX",
"XXXXXXXXXX XXXXXXXXXXX XXXXXXXXX",
"XXXXXXXXXXX XXXXXXXXX XXXXXXXXXX",
"XXXXXXXXXXXX  XXXXX  XXX..XXXXXX",
"XXXXXXXXXXXXXX     XXXXX..XXXXXX",
"XXXXXXXXXXXXXXXXXXXXXXXX..XXXXXX",
"XXXXXXXXXXXXXXXXXXXXXXXX..XXXXXX",
"XXXXXXXXXXXXXXXXXXXXXXXX..XXXXXX",
"XXXXXXXXXXXXXXXXXXXXXXXXXXXXXXXX",
"XXXXXXXXXXXXXXXXXXXXXXXXXXXXXXXX",
"XXXXXXXXXXXXXXXXXXXXXXXXXXXXXXXX",
"XXXXXXXXXXXXXXXXXXXXXXXXXXXXXXXX"
};
