/* XPM */
static char *result[] = {
/* columns rows colors chars-per-pixel */
"32 32 5 1 ",
"  c gray13",
". c #33691E",
"X c #DD2C00",
"o c #00C853",
"O c #FBE9E7",
/* pixels */
"oooooooooooooooooooooooooooooooo",
"oooooooooooooooooooooooooooooooo",
"ooooooooooooooooooooooooooo..ooo",
"ooooooooooooooooooooooooooo..ooo",
"ooooooooooooooooooooooooooo..ooo",
"ooooo..ooooooooooo..ooooooo..ooo",
"ooooo..ooooooooooo..oooooooooooo",
"ooooo..oooooo     ..oooooooooooo",
"ooooo..oooo  XXXXX  oooooooooooo",
"oooooooooo XXXXXXXXX ooooooooooo",
"ooooooooo XXXXXXXXXXX oooooooooo",
"oooooooo XXXXXXXXXXXXX ooooooooo",
"ooooooo  XXXXXXXXXXXXX  .ooooooo",
"ooooooo XXXXXXXXXXXXXXX .ooooooo",
"ooooooo XXXXXXXXXXXXXXX .ooooooo",
"ooooooo  XXXXX   XXXXX  .ooooooo",
"ooooo.. O   X OOO X   O oooooooo",
"ooooo.. OOOO  OOO  OOOO oooooooo",
"ooooo..o OOOO OOO OOOO ooooooooo",
"ooooo..o OOOOO   OOOOO oooo..ooo",
"ooooooooo OOOOOOOOOOO ooooo..ooo",
"oooooooooo OOOOOOOOO oooooo..ooo",
"ooooooooooo  OOOOO  ooooooo..ooo",
"ooooooooooooo     oooooooooooooo",
"oooooooo..ooooooooo..ooooooooooo",
"oooooooo..ooooooooo..ooooooooooo",
"oooooooo..ooooooooo..ooooooooooo",
"oooooooo..ooooooooo..ooooooooooo",
"oooooooooooooooooooooooooooooooo",
"oooooooooooooooooooooooooooooooo",
"oooooooooooooooooooooooooooooooo",
"oooooooooooooooooooooooooooooooo"
};
