/* XPM */
static char *_198c19137594f18a83ad35cda8e7643Dp75hRQ8ypnWyEkk[] = {
/* columns rows colors chars-per-pixel */
"32 32 6 1 ",
"  c gray13",
". c #33691E",
"X c gray46",
"o c #DD2C00",
"O c #00C853",
"+ c gray98",
/* pixels */
"OOOOOOOOOOOOOOOOOOOOOOOOOOOOOOOO",
"OOOOOOOOOOOOOOOOOOOOOOOOOOOOOOOO",
"OOOOOOOOOOOOOOOOOOOOOOOOOOO..OOO",
"OOOOOOOOOOOOOOOOOOOOOOOOOOO..OOO",
"OOOOOOOOOOOOOOOOOOOOOOOOOOO..OOO",
"OOOOO..OOOOOoooooooOOOOOOOO..OOO",
"OOOOO..OOOOoo     ooOOOOOOOOOOOO",
"OOOOO..OOOo   +++  ooOOOOOOOOOOO",
"OOOOO..OOo  X     X  oOOOOOOOOOO",
"OOOOOOOOo XXXXXXXXXXX oOOOOOOOOO",
"OOOOOOOO XXXXXXXXXXXXX  OOOOOOOO",
"OOOOOOO XXXXXXXXXXXXXXX OOOOOOOO",
"OOOOOOO XXXXXXXXXXXXXXX .OOOOOOO",
"OOOOOOO XXXXXXXXXXXXXXX .OOOOOOO",
"OOOOOOO XXXXXXXXXXXXXXX .OOOOOOO",
"OOOOOOOO XXXXXXXXXXXXX ..OOOOOOO",
"OOOOO..OO XXXXXXXXXXX OOOOOOOOOO",
"OOOOO..OO   XXXXXXX   OOOOOOOOOO",
"OOOOO..O +           + OOOOOOOOO",
"OOOOO.. ++           ++ OOO..OOO",
"OOOOOOO +             + OOO..OOO",
"OOOOOOO ++           ++ OOO..OOO",
"OOOOOOO ++++       ++++ OOO..OOO",
"OOOOOOOO +++++++++++++ OOOOOOOOO",
"OOOOOOOO. +++++++++++ OOOOOOOOOO",
"OOOOOOOO..  +++++++  OOOOOOOOOOO",
"OOOOOOOO..OO       ..OOOOOOOOOOO",
"OOOOOOOO..OOOOOOOOO..OOOOOOOOOOO",
"OOOOOOOOOOOOOOOOOOOOOOOOOOOOOOOO",
"OOOOOOOOOOOOOOOOOOOOOOOOOOOOOOOO",
"OOOOOOOOOOOOOOOOOOOOOOOOOOOOOOOO",
"OOOOOOOOOOOOOOOOOOOOOOOOOOOOOOOO"
};
