/* XPM */
static char *result[] = {
/* columns rows colors chars-per-pixel */
"32 32 4 1 ",
"  c gray13",
". c gray46",
"X c gray62",
"o c gray96",
/* pixels */
"oooooooooooooooooooooooooooooooo",
"oooooooooooooooooooooooooooooooo",
"oooooooooooooooooooooooooooooooo",
"oooooXXooooooooooooooooooooooooo",
"oooooXXooooooooooooooooooooooooo",
"oooooXXoooooooooooooooooXXoooooo",
"oooooXXoooooooooooooooooXXoooooo",
"oooooXXoooooooooXXooooooXXoooooo",
"oooooooooooooo     oooooXXoooooo",
"oooooooooooo  .....  oooXXoooooo",
"ooooooooooo ......... oooooooooo",
"oooooooooo ........... ooooooooo",
"ooooooooo ............. oooooooo",
"ooooooooo ............. oooooooo",
"oooooooo ......   ...... ooooooo",
"oooooooo ..... ooo ..... ooooooo",
"oooooooo       ooo       ooooooo",
"oooooooo oXXoo ooo ooooo ooooooo",
"oooooooo oXXooo   oooooo ooooooo",
"ooooooooo ooooooooooooo oooooooo",
"ooooooooo ooooooooooooo oooooooo",
"oooooooooo ooooooooooo ooooooooo",
"ooooooooooo ooooooooo oooooooooo",
"oooooooooooo  ooooo  oooXXoooooo",
"oooooooooooooo     oooooXXoooooo",
"ooooooooooooooooooooooooXXoooooo",
"ooooooooooooooooooooooooXXoooooo",
"ooooooooooooooooooooooooXXoooooo",
"oooooooooooooooooooooooooooooooo",
"oooooooooooooooooooooooooooooooo",
"oooooooooooooooooooooooooooooooo",
"oooooooooooooooooooooooooooooooo"
};
