/* XPM */
static char *result[] = {
/* columns rows colors chars-per-pixel */
"32 32 8 1 ",
"  c gray13",
". c #33691E",
"X c #DD2C00",
"o c #00C853",
"O c #0D47A1",
"+ c #64B5F6",
"@ c #FFE0B2",
"# c gray98",
/* pixels */
"oooooooooooooooooooooooooooooooo",
"oooooooooooooooooooooooooooooooo",
"oooooooooooo        ooooooo..ooo",
"oooooooooooo        ooooooo..ooo",
"oooooooo    ++++++++    ooo..ooo",
"ooooo..o    ++++++++    ooo..ooo",
"ooooo.  ++++++++++++++++  oooooo",
"ooooo.  ++++++++++++++++  oooooo",
"ooooo.  ++++@@++@@@@OO++  oooooo",
"oooooo  ++++@@++@@@@OO++  oooooo",
"oooooo  ++  @@OO@@@@  ++  oooooo",
"oooooo  ++  @@OO@@@@  ++  oooooo",
"oooooo  OO@@  @@@@  @@OO  oooooo",
"oooooo  OO@@  @@@@  @@OO  oooooo",
"oooooo    @@  @@@@  @@    oooooo",
"oooooo    @@  @@@@  @@    oooooo",
"ooooo..o  @@@@@@@@@@@@  oooooooo",
"ooooo..o  @@@@@@@@@@@@  oooooooo",
"ooooo..ooo##        ##oooooooooo",
"ooooo..ooo##        ##ooooo..ooo",
"oooooooooo  ##XXXX##  ooooo..ooo",
"oooooooooo  ##XXXX##  ooooo..ooo",
"oooooooooo    XXXX    ooooo..ooo",
"oooooooooo    XXXX    oooooooooo",
"oooooooo..  ########  oooooooooo",
"oooooooo..  ########  oooooooooo",
"oooooooo..  ##    ##  oooooooooo",
"oooooooo..  ##    ##  oooooooooo",
"oooooooooo    oooo    oooooooooo",
"oooooooooo    oooo    oooooooooo",
"oooooooooooooooooooooooooooooooo",
"oooooooooooooooooooooooooooooooo"
};
