/* XPM */
static char *_21191b188d84b98ba87de7ddc79dccbY1IFha0YRLj1jwWm[] = {
/* columns rows colors chars-per-pixel */
"32 32 2 1 ",
"  c gray13",
". c gray96",
/* pixels */
"................................",
"................................",
"................................",
"................................",
"................................",
"................................",
"................................",
".........   ........   .........",
"........ ... ...... ... ........",
"....... ..... .... ..... .......",
"........ ... ...... ... ........",
".........   ........   .........",
"................................",
"................................",
"................................",
"................................",
"................................",
"................................",
"............         ...........",
".........   ... . ...   ........",
".......   ..... . ......  ......",
"...... ... ... ... .... .. .....",
"...... ... ... .... ... .. .....",
"...... .... . ...... . ... .....",
".......  .. . ...... . .  ......",
".........    ........   ........",
"............         ...........",
"................................",
"................................",
"................................",
"................................",
"................................"
};
