/* XPM */
static char *_37987b73386421ee737259001fbfa97NBBvYnIUrsf0sax8[] = {
/* columns rows colors chars-per-pixel */
"32 32 8 1 ",
"  c gray13",
". c #33691E",
"X c #DD2C00",
"o c #C51162",
"O c #00C853",
"+ c #FF4081",
"@ c #FFE0B2",
"# c gray98",
/* pixels */
"OOOOOOOOOOOOOOOOOOOOOOOOOOOOOOOO",
"OOOOOOOOOOOOOOOOOOOOOOOOOOOOOOOO",
"OOOOOOOOOOOO        OOOOOOO..OOO",
"OOOOOOOOOOOO        OOOOOOO..OOO",
"OOOOOOOO    ++++++++    OOO..OOO",
"OOOOO..O    ++++++++    OOO..OOO",
"OOOOO.  ++++++++++++++++  OOOOOO",
"OOOOO.  ++++++++++++++++  OOOOOO",
"OOOO  ++++++oo++++oo++++  OOOOOO",
"OOOO  ++++++oo@@@@oo++++  OOOOOO",
"OOOO  ++++  @@@@@@@@  ++  OOOOOO",
"OOOO  ++++  @@@@@@@@  ++  OOOOOO",
"OO  ++++++@@  @@@@  @@oo.OOOOOOO",
"OO  +++++@@@  @@@@  @@oo.OOOOOOO",
"OO  +++++@@@  @@@@  @@  .OOOOOOO",
"OO  ++++++@@  @@@@  @@  .OOOOOOO",
"OO    ++++  @@@@@@@@  OOOOOOOOOO",
"OO    ++++  @@@@@@@@  OOOOOOOOOO",
"OO    ++++##        ##OOOOOOOOOO",
"OO    ++++##        ##OOOOO..OOO",
"OOOO  oo++  ##XXXX##  OOOOO..OOO",
"OOOO  oo++  ##XXXX##  OOOOO..OOO",
"OOOO    oo    XXXX    OOOOO..OOO",
"OOOO    oo    XXXX    OOOOOOOOOO",
"OOOOOOOO      ####  .OOOOOOOOOOO",
"OOOOOOOO      ####  .OOOOOOOOOOO",
"OOOOOOOO..OO        .OOOOOOOOOOO",
"OOOOOOOO..OO        .OOOOOOOOOOO",
"OOOOOOOOOO    OOOO    OOOOOOOOOO",
"OOOOOOOOOO    OOOO    OOOOOOOOOO",
"OOOOOOOOOOOOOOOOOOOOOOOOOOOOOOOO",
"OOOOOOOOOOOOOOOOOOOOOOOOOOOOOOOO"
};
