/* XPM */
static char *e92450508f6440c282c67c7b0cec1a5fNszvbIJHRXH6FK1z[] = {
/* columns rows colors chars-per-pixel */
"32 32 7 1 ",
"  c gray13",
". c gray26",
"X c gray38",
"o c gray46",
"O c gray62",
"+ c gray74",
"@ c gray96",
/* pixels */
"@@@OOOo@@@@@@@OOOOOOo@@@@@OOOOOo",
"@@@OOOo@@@@@@@@@@@@@@@@@@@OOOOOo",
"@@@@@@@@@@@@@@@@@@@@@@@@@@@@@@@@",
"@@@@@@@                   @@@@@@",
"OOOOo@@                   @@@@@@",
"OOOOo@@  XXXXXXXXXXXXXXX  @@@@@@",
"OOOOo@@  XXXXXXXXXXXXXXX  @@OOOo",
"OOOOo@@  XXXXXXXXXXXXXXX  @@OOOo",
"OOOOo@@  XXX         XXX  @@OOOo",
"OOOOo@@  XXX @@@@@@+ XXX  @@@@@@",
"@@@@@@@  XXX @@@@@+@ XXX  @@@@@@",
"@@@@@@@  XXX @@@@+@+ XXX  @OOOOo",
"@@@@@@@  XXX @@@+@+@ XXX  @OOOOo",
"@@@@@@@  XXX @@+@+@+ XXX  @@@@@@",
"Oo@@@@@  XXX         XXX  @@@@@@",
"Oo@@@@@  XXXXXXXXXXXXXXX  @@@@@@",
"Oo@@@@@  XXXXXXXXXXXXXXX  @@@@Oo",
"@@@@@@@  XXXXXXXXXXXX.XX  @@@@Oo",
"@@@@@@@  XXXXXXXXXXX. .X  @@@@Oo",
"@@@@@@@  XXXXXXXXXXXX.XX  @@@@Oo",
"OOOOoo@  XXXXXXXXXXXXXXX  @@@@@@",
"OOOOoo@  XXXXXXXXXXXXXXX  @@@@@@",
"OOOOoo@  XX...........XX  @@@@@@",
"@@@@@@@  XX.XXXXXXXXX.XX  @@OOOo",
"@@@@@@@  XX.XXXXXXXXX.XX  @@OOOo",
"@@@@@@@  XX.XXXXXXXXX.XX  @@OOOo",
"OOOo@@@  XX.XXXXXXXXX.XX  @@@@@@",
"OOOo@@@  XX...........XX  @@@@@@",
"OOOo@@@  XXXXXXXXXXXXXXX  @@@@@@",
"@@@@@@@  XXXXXXXXXXXXXXX  @@@@@@",
"@@@@@@@                   @@@@@@",
"@@@@@@@                   @@@@@@"
};
