/* XPM */
static char *ba00ca42fdb743bdae000bd4a174fd92pfTBJ44h4ph0q6EE[] = {
/* columns rows colors chars-per-pixel */
"32 32 10 1 ",
"  c gray13",
". c #3E2723",
"X c #4E342E",
"o c #33691E",
"O c #5D4037",
"+ c gray26",
"@ c #6D4C41",
"# c #795548",
"$ c gray38",
"% c #00C853",
/* pixels */
"%%%%%%%%%%%%%%%%%%%%%%%%%%%%%%%%",
"%%%%%%%%%%%%%%%%%%%%%%%%%%%%%%%%",
"%%%%%%%%%%%%%%%%%%%%%%%%%%%oo%%%",
"%%%%%%%%%%%%%%%%%%%%%%%%%%%oo%%%",
"%%%%%%%%%%%%%%%%%%%%%%%%%%%oo%%%",
"%%%%%oo%%%%%%%%%%%oo%%%%%%%oo%%%",
"%%%%%oo%%%%%%%%%%%oo%%%%%%%%%%%%",
"%%%%%oo%%##$$$$$$$$$$##%%%%%%%%%",
"%%%%%oo%%###$$$$$$$$$###%%%%%%%%",
"%%%%%%%$$##$++++++++$##$$%%%%%%%",
"%%%%%%$$$##++      ++##$$$%%%%%%",
"%%%%%$$$+@@          @@+$$$%%%%%",
"%%%%$$$++@@@@@@@@@@@@@@++$$$%%%%",
"%%%$$$++ @@@@@@@@@@@@@@ ++$$$%%%",
"%%%$$++  OO          OO  ++$$%%%",
"%%%$$+   OO          OO   +$$%%%",
"%%%$$+   XXXXXXXXXXXXXX   +$$%%%",
"%%%$$++  XXXXXXXXXXXXXX  ++$$%%%",
"%%%$$$++ ..          .. ++$$$%%%",
"%%%%$$$++..          ..++$$$o%%%",
"%%%%%$$$+++..........+++$$$oo%%%",
"%%%%%%$$$$+++......+++$$$$%oo%%%",
"%%%%%%%$$$$$++++++++$$$$$%%oo%%%",
"%%%%%%%%%$$$$$$$$$$$$$$%%%%%%%%%",
"%%%%%%%%%%%$$$$$$$$$$%%%%%%%%%%%",
"%%%%%%%%oo%%%%%%%%%%%%%%%%%%%%%%",
"%%%%%%%%oo%%%%%%%%%oo%%%%%%%%%%%",
"%%%%%%%%oo%%%%%%%%%oo%%%%%%%%%%%",
"%%%%%%%%%%%%%%%%%%%%%%%%%%%%%%%%",
"%%%%%%%%%%%%%%%%%%%%%%%%%%%%%%%%",
"%%%%%%%%%%%%%%%%%%%%%%%%%%%%%%%%",
"%%%%%%%%%%%%%%%%%%%%%%%%%%%%%%%%"
};
