/* XPM */
static char *_9a6f3a0cc214fe1b4329839055fbf02tPmktu5YRdck6RW3[] = {
/* columns rows colors chars-per-pixel */
"32 32 2 1 ",
"  c #33691E",
". c #00C853",
/* pixels */
"................................",
"................................",
"...........................  ...",
"...........................  ...",
"...........................  ...",
".....  ...........  .......  ...",
".....  ...........  ............",
".....  ...........  ............",
".....  ...........  ............",
"...........  ...................",
"...........  ...................",
"...........  ...................",
"...........  ..........  .......",
".......................  .......",
".......................  .......",
".......................  .......",
".....  .........................",
".....  .........................",
".....  ........  ...............",
".....  ........  ..........  ...",
"...............  ..........  ...",
"...............  ..........  ...",
"...........................  ...",
"................................",
"........  .........  ...........",
"........  .........  ...........",
"........  .........  ...........",
"........  .........  ...........",
"................................",
"................................",
"................................",
"................................"
};
