/* XPM */
static char *_5195853463147848641b0c2b4b9155e51uR06aVQJjVD9hW[] = {
/* columns rows colors chars-per-pixel */
"32 32 2 1 ",
"  c gray62",
". c gray96",
/* pixels */
"................................",
"................................",
"................................",
".....  .........................",
".....  .........................",
".....  .................  ......",
".....  .................  ......",
".....  .........  ......  ......",
"................  ......  ......",
"................  ......  ......",
"................  ..............",
"................  ..............",
"................................",
"................................",
"..........  ....................",
"..........  ....................",
"..........  ....................",
"..........  ....................",
"..........  ....................",
"................................",
"................................",
"................................",
"................................",
"........................  ......",
"........................  ......",
"........................  ......",
"........................  ......",
"........................  ......",
"................................",
"................................",
"................................",
"................................"
};
