/* XPM */
static char *_180da7351e1497d889f82e7db09ef24PbkQQSB6eAAdyfuw[] = {
/* columns rows colors chars-per-pixel */
"32 32 8 1 ",
"  c gray13",
". c #006064",
"X c #DD2C00",
"o c #FF6E40",
"O c #00C853",
"+ c #FBC02D",
"@ c #FFEB3B",
"# c #FFCCBC",
/* pixels */
"OOOOOOOOOO              OOOOOOOO",
"OOOOOOOOOO              OOOOOOOO",
"OOOOOOOO  XXXXXXXXXXXXXX  OOOOOO",
"OOOOOOOO  XXXXXXXXXXXXXX  OOOOOO",
"OOOOOO  XXXXXXXXXXXXXXXXXX  OOOO",
"OOOOOO  XXXXXXXXXXXXXXXXXX  OOOO",
"OOOO    XXXXXXXXXXXXXXXXXX  OOOO",
"OOOO    XXXXXXXXXXXXXXXXXX  OOOO",
"OO  ooooooooXXXXXXXXXXXX      OO",
"OO  ooooooooXXXXXXXXXXXX      OO",
"OOOO    oooooooo              OO",
"OOOO    oooooooo              OO",
"OOOOOO  ##########  ####    OOOO",
"OOOOOO  ###  #####  ####    OOOO",
"OOOOOO  ###  ###########  OOOOOO",
"OOOOOO  ###  ###########  OOOOOO",
"OOOOOO  ###  #######    ++  OOOO",
"OOOOOO  ############    ++  OOOO",
"OOOOOOOO  ########      ++++  OO",
"OOOOOOOO  ########      ++++  OO",
"OOOOOOOOOO              ++@@  OO",
"OOOOOOOOOO              ++@@  OO",
"OOOOOOOOOOOO      ####  ++++  OO",
"OOOOOOOOOOOO      ####  ++++  OO",
"OOOOOOOOOOOO      ####  ++++  OO",
"OOOOOOOOOOOO      ####  ++++  OO",
"OOOOOOOOOO  ....        ++  OOOO",
"OOOOOOOOOO  ....        ++  OOOO",
"OOOOOOOOOO  ..........    OOOOOO",
"OOOOOOOOOO  ..........    OOOOOO",
"OOOOOOOOOOOO  .....     OOOOOOOO",
"OOOOOOOOOOOO  .....     OOOOOOOO"
};
