/* XPM */
static char *_293af702c0441fcf087d0650cc35a4181f8DVNvlA2a7Ntr[] = {
/* columns rows colors chars-per-pixel */
"32 32 7 1 ",
"  c gray13",
". c #006064",
"X c #DD2C00",
"o c #FF6E40",
"O c #00C853",
"+ c gray62",
"@ c #FFCCBC",
/* pixels */
"OOOOOOOOOO            OOOOOOOOOO",
"OOOOOOOOOO            OOOOOOOOOO",
"OOOOOOOO  XXXXXXXXXXXX  OOOOOOOO",
"OOOOOOOO  XXXXXXXXXXXX  OOOOOOOO",
"OOOOOO  XXXXXXXXXXXXXXXX  OOOOOO",
"OOOOOO  XXXXXXXXXXXXXXXX  OOOOOO",
"OOOOOO  XXXXXXXXXXXXXXXX  OOOOOO",
"OOOOOO  XXXXXXXXXXXXXXXX  OOOOOO",
"OOOO      XXooooooooXX      OOOO",
"OOOO      XXooooooooXX      OOOO",
"OOOO    @@            @@    OOOO",
"OOOO    @@            @@    OOOO",
"OO  @@  @@@@@@@@@@@@@@@@  @@  OO",
"OO  @@  @@@@@@@@@@@@@@@@  @@  OO",
"OO  @@@@@@@@  @@@@  @@@@@@@@  OO",
"OO  @@@@@@@@  @@@@  @@@@@@@@  OO",
"OOOO    @@@@  @@@@  @@@@    OOOO",
"OOOO    @@@@  @@@@  @@@@    OOOO",
"OOOO      @@@@++++@@@@      OOOO",
"OOOO      @@@@++++@@@@      OOOO",
"OO  @@@@                @@@@  OO",
"OO  @@@@                @@@@  OO",
"OO  @@@@                @@@@  OO",
"OO  @@@@                @@@@  OO",
"OOOO      ....    ....      OOOO",
"OOOO      ....    ....      OOOO",
"OOOOOO  ..    ....    ..  OOOOOO",
"OOOOOO  ..    ....  ....  OOOOOO",
"OOOOOO  ......    ......  OOOOOO",
"OOOOOO  ......    ......  OOOOOO",
"OOOOOOOO      OOOO      OOOOOOOO",
"OOOOOOOO      OOOO      OOOOOOOO"
};
