/* XPM */
static char *ed9d8c6e81294124de261b709e5c220feNezER9geDA5EGQ5[] = {
/* columns rows colors chars-per-pixel */
"32 32 7 1 ",
"  c gray13",
". c #006064",
"X c #DD2C00",
"o c #00C853",
"O c #FBC02D",
"+ c #FFEB3B",
"@ c #FFCCBC",
/* pixels */
"oooooooooo            oooooooooo",
"oooooooooo            oooooooooo",
"oooooooo  XXXXXXXXXXXX  oooooooo",
"oooooooo  XXXXXXXXXXXX  oooooooo",
"oooooo  XXXXXXXXXXXXXXXX  oooooo",
"oooooo  XXXXXXXXXXXXXXXX  oooooo",
"oooooo  XXXXXXXXXXXXXXXX  oooooo",
"oooooo  XXXXXXXXXXXXXXXX  oooooo",
"oooo      XXXXXXXXXXXX      oooo",
"oooo      XXXXXXXXXXXX      oooo",
"oooo                        oooo",
"oooo                        oooo",
"oo  @@                    @@  oo",
"oo  @@                    @@  oo",
"oo  @@@@                @@@@  oo",
"oo  @@@@                @@@@  oo",
"oooo    @@@@OOOOOOOO@@@@    oooo",
"oooo    @@@@OOOOOOOO@@@@    oooo",
"oooo      OO        OO      oooo",
"oooo      OO        OO      oooo",
"oo  @@@@  OOOO++++OOOO  @@@@  oo",
"oo  @@@@  OOOO++++OOOO  @@@@  oo",
"oo  @@@@  OOOOOOOOOOOO  @@@@  oo",
"oo  @@@@  OOOOOOOOOOOO  @@@@  oo",
"oooo        OOOOOOOO        oooo",
"oooo        OOOOOOOO        oooo",
"oooooo  ..            ..  oooooo",
"oooooo  ..            ..  oooooo",
"oooooo  ......    ......  oooooo",
"oooooo  ......    ......  oooooo",
"oooooooo      oooo      oooooooo",
"oooooooo      oooo      oooooooo"
};
