/* XPM */
static char *_fbd6d9dd63349effc357ed220082e8aEBR2JcOW70I8N3lx[] = {
/* columns rows colors chars-per-pixel */
"32 32 8 1 ",
"  c #DE2800",
". c #1B1B1B",
"X c #00C952",
"o c #FFCDBD",
"O c #006064",
"+ c #FBC129",
"@ c #FF6E3E",
"# c #FFEC38",
/* pixels */
"XXXXXXXX..............XXXXXXXXXX",
"XXXXXXXX..............XXXXXXXXXX",
"XXXXXX..              ..XXXXXXXX",
"XXXXXX..              ..XXXXXXXX",
"XXXX..                  ..XXXXXX",
"XXXX..                  ..XXXXXX",
"XXXX..                  ....XXXX",
"XXXX..                  ....XXXX",
"XX......            @@@@@@@@..XX",
"XX......            @@@@@@@@..XX",
"XX..............@@@@@@@@....XXXX",
"XX..............@@@@@@@@....XXXX",
"XXXX....oooo..oooooooooo..XXXXXX",
"XXXX....oooo..ooooo..ooo..XXXXXX",
"XXXXXX..ooooooooooo..ooo..XXXXXX",
"XXXXXX..ooooooooooo..ooo..XXXXXX",
"XXXX..++....ooooooo..ooo..XXXXXX",
"XXXX..++....oooooooooooo..XXXXXX",
"XX..++++......oooooooo..XXXXXXXX",
"XX..++++......oooooooo..XXXXXXXX",
"XX..##++..............XXXXXXXXXX",
"XX..##++..............XXXXXXXXXX",
"XX..++++..oooo......XXXXXXXXXXXX",
"XX..++++..oooo......XXXXXXXXXXXX",
"XX..++++..oooo......XXXXXXXXXXXX",
"XX..++++..oooo......XXXXXXXXXXXX",
"XXXX..++........OOOO..XXXXXXXXXX",
"XXXX..++........OOOO..XXXXXXXXXX",
"XXXXXX....OOOOOOOOOO..XXXXXXXXXX",
"XXXXXX....OOOOOOOOOO..XXXXXXXXXX",
"XXXXXXXX.....OOOOO..XXXXXXXXXXXX",
"XXXXXXXX.....OOOOO..XXXXXXXXXXXX"
};
