/* XPM */
static char *_d5b6d14d1954f38afc9f69bbad40763kkAxtMmhZ8aZ8imt[] = {
/* columns rows colors chars-per-pixel */
"32 32 5 1 ",
"  c gray13",
". c gray62",
"X c gray88",
"o c #EEEEEE",
"O c gray96",
/* pixels */
"OOOOOOOOOO            OOOOOOOOOO",
"OOOOOOOOOO            OOOOOOOOOO",
"OOOOOOOO  ............  OOOOOOOO",
"OOOOOOOO  ............  OOOOOOOO",
"OOOOOO  ................  OOOOOO",
"OOOOOO  ................  OOOOOO",
"OOOOOO  ................  OOOOOO",
"OOOOOO  ................  OOOOOO",
"OOOO      ..XXXXXXXX..      OOOO",
"OOOO      ..XXXXXXXX..      OOOO",
"OOOO    oo            oo    OOOO",
"OOOO    oo            oo    OOOO",
"OO  oo  oooooooooooooooo  oo  OO",
"OO  oo  oooooooooooooooo  oo  OO",
"OO  oooooooo  oooo  oooooooo  OO",
"OO  oooooooo  oooo  oooooooo  OO",
"OOOO    oooo  oooo  oooo    OOOO",
"OOOO    oooo  oooo  oooo    OOOO",
"OOOO      oooo....oooo      OOOO",
"OOOO      oooo....oooo      OOOO",
"OO  ooooo               oooo  OO",
"OO  ooooo               oooo  OO",
"OO  ooooo               oooo  OO",
"OO  ooooo               oooo  OO",
"OOOO      ....    ....      OOOO",
"OOOO      ....    ....      OOOO",
"OOOOOO  ..    ....    ..  OOOOOO",
"OOOOOO  ..    ....  ....  OOOOOO",
"OOOOOO  ......    ......  OOOOOO",
"OOOOOO  ......    ......  OOOOOO",
"OOOOOOOO      OOOO      OOOOOOOO",
"OOOOOOOO      OOOO      OOOOOOOO"
};
