/* XPM */
static char *fc009e7560374316fc3510ec0be3273ewunWCgSBXGgzxsOO[] = {
/* columns rows colors chars-per-pixel */
"32 32 3 1 ",
"  c gray46",
". c gray62",
"X c gray96",
/* pixels */
"XXXXXXXXXXXXXXXXXXXXXXXXXXXXXXXX",
"XXXXXXXXXXXXXXXXXXXXXXXXXXXXXXXX",
"XXXXXXXXXXXXXXXXXXXXXXXXXXXXXXXX",
"XXX....................   XXXXXX",
"XXX....................   XXXXXX",
"XXX....................   XXXXXX",
"XXX....................   XXXXXX",
"XXX....................   XXXXXX",
"XXXXXXXXXXXXXXXXXXXXXXXXXXXXXXXX",
"XXXXXXXXXXXXXXXXXXXXXXXXXXXXXXXX",
"XXXXXXXXXXXXXXXXXXXXXXXXXXXXXXXX",
"XXX.........  XXXX............  ",
"XXX.........  XXXX............  ",
"XXX.........  XXXX............  ",
"XXX.........  XXXX............  ",
"XXX.........  XXXXXXXXXXXXXXXXXX",
"XXX.........  XXXXXXXXXXXXXXXXXX",
"XXXXXXXXXXXXXXXXXXXXXXXXXXXXXXXX",
"XXXXXXXXXXXXXXXXXXXX...  XXXXXXX",
"XXXXXXXXXXXXXXXXXXXX...  XXXXXXX",
"XXX.......................... XX",
"XXX.......................... XX",
"XXX.......................... XX",
"XXX.......................... XX",
"XXX.......................... XX",
"XXXXXX..............XXXXXXXXXXXX",
"XXXXXX..............XXXXXXXXXXXX",
"XXXXXXXXXXXXXXXXXXXXXXXXXXXXXXXX",
"XXXXXXXXXXXXXXXXXXXXXXXXXXXXXXXX",
"XXXXXXXXXXXXXXXXXXXXXXXXXXXXXXXX",
"XXXXXXXXXXXXXXXXXXXXXXXXXXXXXXXX",
"XXXXXXXXXXXXXXXXXXXXXXXXXXXXXXXX"
};
