/* XPM */
static char *_e7f68940b7b4eac96b2b1d1b2033d3beNdwmqphyi1zfKr9[] = {
/* columns rows colors chars-per-pixel */
"32 32 5 1 ",
"  c gray13",
". c #33691E",
"X c #1B5E20",
"o c #6D4C41",
"O c #00C853",
/* pixels */
"OOOOOOOOOOOOOOOOOOOO  OO  OOOOOO",
"OOOOOOOOOOOOOOOOOOOO  OO  OOOOOO",
"OOOOOOOOOOOOOOOO    ..  ..  OOOO",
"OOOOOOOOOOOOOOOO    ..  ..  OOOO",
"OOOO  OO  OOOOOO  ..........  OO",
"OOOO  OO  OOOOOO  ..........  OO",
"OO  ..  ..  OOOOOO  ..XXXX....  ",
"OO  ..  ..  OOOOOO  ..XXXX....  ",
"  ..........  OO  ....XX....  OO",
"  ..........  OO  ....XX....  OO",
"OO  ..XXXX..    oo  XX....  OOOO",
"OO  ..XXXX..    oo  XX....  OOOO",
"  ......XX  oo  oooo  ..    OOOO",
"  ......XX  oo  oooo  ..    OOOO",
"OO  ..  ..  oooooooooo    OOOOOO",
"OO  ..  ..  oooooooooo    OOOOOO",
"OOOO  OO    oooooooo  OOOOOOOOOO",
"OOOO  OO    oooooooo  OOOOOOOOOO",
"OOOOOOOOOOOO  oooo  OOOOOOOOOOOO",
"OOOOOOOOOOOO  oooo  OOOOOOOOOOOO",
"OOOOOOOOOOOO  oooo  OOOOOOOOOOOO",
"OOOOOOOOOOOO  oooo  OOOOOOOOOOOO",
"OOOOOOOOOOOO  oooo  OOOOOOOOOOOO",
"OOOOOOOOOOOO  oooo  OOOOOOOOOOOO",
"OOOOOOOOOO  oooooooo  OOOOOOOOOO",
"OOOOOOOOOO  oooooooo  OOOOOOOOOO",
"OOOOOOOO  oooooooooooo  OOOOOOOO",
"OOOOOOOO  oooooooooooo  OOOOOOOO",
"OOOOOOOOOO    oooo    OOOOOOOOOO",
"OOOOOOOOOO    oooo    OOOOOOOOOO",
"OOOOOOOOOOOOOO    OOOOOOOOOOOOOO",
"OOOOOOOOOOOOOO    OOOOOOOOOOOOOO"
};
